<svg xmlns="http://www.w3.org/2000/svg" id="Layer_1" version="1.1" viewBox="0 0 252 108">
  <!-- Generator: Adobe Illustrator 29.1.0, SVG Export Plug-In . SVG Version: 2.1.0 Build 142)  -->
  <path d="M69.5,75.72l.32-.32c11.16-11.16,11.16-29.41,0-40.56l-2.57-2.57c-11.16-11.16-29.41-11.16-40.56,0l-.32.32c-11.16,11.16-11.16,29.41,0,40.56l2.57,2.57c11.16,11.16,29.41,11.16,40.56,0ZM26.78,42.94c2.19-1.38,4.78-2.19,7.56-2.19,6.62,0,12.16,4.53,13.75,10.64,1.59-6.12,7.13-10.64,13.75-10.64,2.78,0,5.37.81,7.56,2.19v22.11c-2.19-1.38-4.78-2.19-7.56-2.19-6.62,0-12.16,4.53-13.75,10.64-1.59-6.12-7.13-10.64-13.75-10.64-2.78,0-5.37.81-7.56,2.19v-22.11Z" fill="#ffffff"/>
  <g>
    <path d="M86.39,59.68c0-7.51,5.83-13.19,13.59-13.19s13.59,5.68,13.59,13.19-5.83,13.19-13.59,13.19-13.59-5.68-13.59-13.19ZM106.15,59.68c0-3.56-2.62-6.23-6.18-6.23s-6.18,2.67-6.18,6.23,2.62,6.23,6.18,6.23,6.18-2.67,6.18-6.23Z" fill="#ffffff"/>
    <path d="M115.84,59.68c0-7.51,5.83-13.19,13.59-13.19,6.77,0,12.16,4.4,13,10.53h-7.66c-.69-2.13-2.82-3.56-5.34-3.56-3.56,0-6.18,2.67-6.18,6.23s2.62,6.23,6.18,6.23c2.52,0,4.65-1.43,5.34-3.56h7.66c-.84,6.13-6.23,10.53-13,10.53-7.76,0-13.59-5.68-13.59-13.19v-.02Z" fill="#ffffff"/>
    <path d="M146.23,36.7h7.21v20.01l8.7-9.64h9.14l-10.43,11.17,10.77,14.03h-9.24l-6.52-8.7-2.42,2.57v6.13h-7.21v-35.58h0Z" fill="#ffffff"/>
    <path d="M175.74,64.28v-10.62h-3.76v-6.57h2.08c1.38,0,2.08-.69,2.08-2.08v-4.55h6.82v6.62h8.25v6.57h-8.25v9.93c0,1.28.89,2.13,2.13,2.13,1.38,0,2.22-.99,2.22-2.62h6.42c0,5.58-3.56,9.19-9.09,9.19s-8.9-3.21-8.9-8.01h0Z" fill="#ffffff"/>
    <path d="M195.45,39.52c0-2.52,1.93-4.4,4.45-4.4s4.5,1.88,4.5,4.4-1.93,4.45-4.5,4.45-4.45-1.88-4.45-4.45ZM196.29,47.08h7.21v25.2h-7.21s0-25.2,0-25.2Z" fill="#ffffff"/>
    <path d="M206.08,47.08h8.25l5.78,16.01,5.83-16.01h8.05l-10.23,25.2h-7.41l-10.28-25.2h0Z" fill="#ffffff"/>
  </g>
</svg>