<svg xmlns="http://www.w3.org/2000/svg" id="Layer_1" version="1.1" viewBox="0 0 72 72">
  <!-- Generator: Adobe Illustrator 29.1.0, SVG Export Plug-In . SVG Version: 2.1.0 Build 142)  -->
  <defs fill="#ffffff">
    <style>
      .st0 {
        fill: #ffffff;
      }
    </style>
  </defs>
  <path class="st0" d="M58.89,59.68l.34-.34c12.01-12.01,12.01-31.66,0-43.67l-2.77-2.77C44.45.89,24.8.89,12.79,12.9l-.34.34C.44,25.25.44,44.9,12.45,56.91l2.77,2.77c12.01,12.01,31.66,12.01,43.67,0ZM12.9,24.39c2.36-1.49,5.15-2.36,8.14-2.36,7.12,0,13.09,4.87,14.8,11.46,1.71-6.59,7.68-11.46,14.8-11.46,3,0,5.78.87,8.14,2.36v23.8c-2.36-1.49-5.15-2.36-8.14-2.36-7.12,0-13.09,4.87-14.8,11.46-1.71-6.59-7.68-11.46-14.8-11.46-3,0-5.78.87-8.14,2.36v-23.8Z" fill="#ffffff"/>
</svg>